# xmcd
#
# Track frame offsets:
#	150
#	36739
#	92408
#	130828
#	183931
#	211142
#	246571
#
# Disc length: 4059 seconds
# Revision: 1
# Processed by: cddbd v1.5.2PL0 Copyright (c) Steve Scherf et al.
# Submitted via: dBpowerAMP V12.0
#
DISCID=600fd907
DTITLE=Lester Levenson - A Fireside Chat with Lester Levenson CD 04
DYEAR=1976
DGENRE=Home Study
TTITLE0=About Releasing
TTITLE1=Demonstrates Imperturbability pt 1
TTITLE2=Demonstrates Imperturbability pt 2
TTITLE3=Demonstrates Imperturbability pt 3
TTITLE4=Demonstrates Imperturbability pt 4
TTITLE5=Demonstrates Imperturbability pt 5
TTITLE6=Demonstrates Imperturbability pt 6
EXTD=
EXTT0=
EXTT1=
EXTT2=
EXTT3=
EXTT4=
EXTT5=
EXTT6=
PLAYORDER=
